<mxfile host="app.diagrams.net" modified="2021-03-27T04:24:24.800Z" agent="5.0 (Windows NT 10.0; Win64; x64) AppleWebKit/537.36 (KHTML, like Gecko) Chrome/89.0.4389.90 Safari/537.36" etag="m78TSRsEQ-0u3H9tIJvH" version="14.1.8" type="github">
  <diagram id="5-ym-jHQ_HLjw8fe3Hp3" name="Page-1">
    <mxGraphModel dx="782" dy="475" grid="0" gridSize="10" guides="1" tooltips="1" connect="1" arrows="1" fold="1" page="1" pageScale="1" pageWidth="827" pageHeight="1169" math="0" shadow="0">
      <root>
        <mxCell id="0" />
        <mxCell id="1" parent="0" />
        <mxCell id="UYY9WWWykA_fP7H2g1s5-26" value="&lt;font color=&quot;#000000&quot; style=&quot;font-size: 14px;&quot;&gt;keyBy&lt;/font&gt;" style="edgeStyle=orthogonalEdgeStyle;curved=1;orthogonalLoop=1;jettySize=auto;html=1;exitX=0.5;exitY=0;exitDx=0;exitDy=0;entryX=0.5;entryY=0;entryDx=0;entryDy=0;fontColor=#FFFFFF;labelPosition=center;verticalLabelPosition=middle;align=center;verticalAlign=middle;fontSize=14;" parent="1" source="UYY9WWWykA_fP7H2g1s5-1" target="UYY9WWWykA_fP7H2g1s5-2" edge="1">
          <mxGeometry relative="1" as="geometry">
            <Array as="points">
              <mxPoint x="130" y="150" />
              <mxPoint x="405" y="150" />
            </Array>
          </mxGeometry>
        </mxCell>
        <mxCell id="UYY9WWWykA_fP7H2g1s5-1" value="&lt;font style=&quot;font-size: 18px&quot;&gt;&lt;b&gt;DataStream&lt;/b&gt;&lt;/font&gt;" style="rounded=1;whiteSpace=wrap;html=1;fillColor=#dae8fc;strokeColor=#6c8ebf;" parent="1" vertex="1">
          <mxGeometry x="50" y="220" width="160" height="60" as="geometry" />
        </mxCell>
        <mxCell id="UYY9WWWykA_fP7H2g1s5-27" value="window" style="edgeStyle=orthogonalEdgeStyle;curved=1;orthogonalLoop=1;jettySize=auto;html=1;exitX=0.75;exitY=0;exitDx=0;exitDy=0;entryX=0.5;entryY=0;entryDx=0;entryDy=0;fontSize=14;" parent="1" source="UYY9WWWykA_fP7H2g1s5-2" target="UYY9WWWykA_fP7H2g1s5-3" edge="1">
          <mxGeometry relative="1" as="geometry">
            <Array as="points">
              <mxPoint x="448" y="150" />
              <mxPoint x="665" y="150" />
            </Array>
          </mxGeometry>
        </mxCell>
        <mxCell id="UYY9WWWykA_fP7H2g1s5-28" value="reduce&lt;br&gt;aggregate" style="edgeStyle=orthogonalEdgeStyle;curved=1;orthogonalLoop=1;jettySize=auto;html=1;exitX=0.25;exitY=1;exitDx=0;exitDy=0;entryX=0.5;entryY=1;entryDx=0;entryDy=0;fontSize=14;fontColor=#000000;" parent="1" source="UYY9WWWykA_fP7H2g1s5-2" target="UYY9WWWykA_fP7H2g1s5-1" edge="1">
          <mxGeometry relative="1" as="geometry">
            <Array as="points">
              <mxPoint x="363" y="320" />
              <mxPoint x="130" y="320" />
            </Array>
          </mxGeometry>
        </mxCell>
        <mxCell id="UYY9WWWykA_fP7H2g1s5-2" value="&lt;font style=&quot;font-size: 18px&quot;&gt;&lt;b&gt;KeyedStream&lt;/b&gt;&lt;/font&gt;" style="rounded=1;whiteSpace=wrap;html=1;fillColor=#f8cecc;strokeColor=#b85450;" parent="1" vertex="1">
          <mxGeometry x="320" y="220" width="170" height="60" as="geometry" />
        </mxCell>
        <mxCell id="UYY9WWWykA_fP7H2g1s5-30" value="sum/min/max&lt;br&gt;reduce/aggregate/fold/apply/process" style="edgeStyle=orthogonalEdgeStyle;curved=1;orthogonalLoop=1;jettySize=auto;html=1;exitX=0.5;exitY=1;exitDx=0;exitDy=0;entryX=0.25;entryY=1;entryDx=0;entryDy=0;fontSize=14;fontColor=#000000;" parent="1" source="UYY9WWWykA_fP7H2g1s5-3" target="UYY9WWWykA_fP7H2g1s5-1" edge="1">
          <mxGeometry relative="1" as="geometry">
            <Array as="points">
              <mxPoint x="665" y="370" />
              <mxPoint x="90" y="370" />
            </Array>
          </mxGeometry>
        </mxCell>
        <mxCell id="UYY9WWWykA_fP7H2g1s5-3" value="&lt;font style=&quot;font-size: 18px&quot;&gt;&lt;b&gt;WindowedStream&lt;/b&gt;&lt;/font&gt;" style="rounded=1;whiteSpace=wrap;html=1;fillColor=#d5e8d4;strokeColor=#82b366;" parent="1" vertex="1">
          <mxGeometry x="580" y="220" width="170" height="60" as="geometry" />
        </mxCell>
      </root>
    </mxGraphModel>
  </diagram>
</mxfile>
